<svg width="47" height="46" viewBox="0 0 47 46" fill="none" xmlns="http://www.w3.org/2000/svg">
<path d="M11.1183 21.3133C2.14828 21.9458 2.14828 34.9983 11.1183 35.6308H14.7984" stroke="#640EF1" stroke-width="3" stroke-miterlimit="10" stroke-linecap="round" stroke-linejoin="round"/>
<path d="M11.2142 21.3133C5.06173 4.19747 31.0133 -2.64502 33.9841 15.3333C42.2833 16.3875 45.6376 27.4467 39.3509 32.9475C37.4342 34.6917 34.9617 35.65 32.3742 35.6308H32.2016" stroke="#640EF1" stroke-width="3" stroke-miterlimit="10" stroke-linecap="round" stroke-linejoin="round"/>
<path d="M33.0833 31.6825C33.0833 33.1008 32.7766 34.4425 32.2016 35.6308C32.0483 35.9758 31.8759 36.3017 31.6842 36.6083C30.0359 39.3875 26.9883 41.2658 23.5 41.2658C20.0117 41.2658 16.9641 39.3875 15.3158 36.6083C15.1241 36.3017 14.9517 35.9758 14.7984 35.6308C14.2234 34.4425 13.9167 33.1008 13.9167 31.6825C13.9167 26.3925 18.21 22.0992 23.5 22.0992C28.79 22.0992 33.0833 26.3925 33.0833 31.6825Z" stroke="#640EF1" stroke-width="3" stroke-miterlimit="10" stroke-linecap="round" stroke-linejoin="round"/>
<path d="M20.51 31.6825L22.4075 33.58L26.49 29.8042" stroke="#640EF1" stroke-width="3" stroke-linecap="round" stroke-linejoin="round"/>
</svg>
